<svg width="207" height="37" viewBox="0 0 207 37" fill="none" xmlns="http://www.w3.org/2000/svg">
<g id="SRC 001">
<rect width="207" height="37" fill="#D9D9D9"/>
<path id="Text 1" d="M78.7727 5.77273C78.7045 5.19697 78.428 4.75 77.9432 4.43182C77.4583 4.11364 76.8636 3.95455 76.1591 3.95455C75.6439 3.95455 75.1932 4.03788 74.8068 4.20455C74.4242 4.37121 74.125 4.60038 73.9091 4.89205C73.697 5.18371 73.5909 5.51515 73.5909 5.88636C73.5909 6.19697 73.6648 6.46401 73.8125 6.6875C73.964 6.9072 74.1572 7.09091 74.392 7.23864C74.6269 7.38258 74.8731 7.50189 75.1307 7.59659C75.3883 7.6875 75.625 7.76136 75.8409 7.81818L77.0227 8.13636C77.3258 8.21591 77.6629 8.32576 78.0341 8.46591C78.4091 8.60606 78.767 8.79735 79.108 9.03977C79.4527 9.27841 79.7367 9.58523 79.9602 9.96023C80.1837 10.3352 80.2955 10.7955 80.2955 11.3409C80.2955 11.9697 80.1307 12.5379 79.8011 13.0455C79.4754 13.553 78.9981 13.9564 78.3693 14.2557C77.7443 14.5549 76.9848 14.7045 76.0909 14.7045C75.2576 14.7045 74.536 14.5701 73.9261 14.3011C73.3201 14.0322 72.8428 13.6572 72.4943 13.1761C72.1496 12.6951 71.9545 12.1364 71.9091 11.5H73.3636C73.4015 11.9394 73.5492 12.303 73.8068 12.5909C74.0682 12.875 74.3977 13.0871 74.7955 13.2273C75.197 13.3636 75.6288 13.4318 76.0909 13.4318C76.6288 13.4318 77.1117 13.3447 77.5398 13.1705C77.9678 12.9924 78.3068 12.7462 78.5568 12.4318C78.8068 12.1136 78.9318 11.7424 78.9318 11.3182C78.9318 10.9318 78.8239 10.6174 78.608 10.375C78.392 10.1326 78.108 9.93561 77.7557 9.78409C77.4034 9.63258 77.0227 9.5 76.6136 9.38636L75.1818 8.97727C74.2727 8.71591 73.553 8.3428 73.0227 7.85795C72.4924 7.37311 72.2273 6.73864 72.2273 5.95455C72.2273 5.30303 72.4034 4.73485 72.7557 4.25C73.1117 3.76136 73.589 3.38258 74.1875 3.11364C74.7898 2.84091 75.4621 2.70455 76.2045 2.70455C76.9545 2.70455 77.6212 2.83901 78.2045 3.10795C78.7879 3.37311 79.25 3.73674 79.5909 4.19886C79.9356 4.66098 80.1174 5.18561 80.1364 5.77273H78.7727ZM82.6122 14.5V2.86364H86.544C87.4531 2.86364 88.1993 3.01894 88.7827 3.32955C89.366 3.63636 89.7978 4.05871 90.0781 4.59659C90.3584 5.13447 90.4986 5.74621 90.4986 6.43182C90.4986 7.11742 90.3584 7.72538 90.0781 8.25568C89.7978 8.78598 89.3679 9.20265 88.7884 9.50568C88.2088 9.80492 87.4683 9.95455 86.5668 9.95455H83.3849V8.68182H86.5213C87.1425 8.68182 87.6425 8.59091 88.0213 8.40909C88.4039 8.22727 88.6804 7.9697 88.8509 7.63636C89.0251 7.29924 89.1122 6.89773 89.1122 6.43182C89.1122 5.96591 89.0251 5.55871 88.8509 5.21023C88.6766 4.86174 88.3982 4.5928 88.0156 4.40341C87.633 4.21023 87.1274 4.11364 86.4986 4.11364H84.0213V14.5H82.6122ZM88.0895 9.27273L90.9531 14.5H89.3168L86.4986 9.27273H88.0895ZM102.21 6.5H100.801C100.718 6.0947 100.572 5.73864 100.364 5.43182C100.159 5.125 99.9091 4.86742 99.6136 4.65909C99.322 4.44697 98.9981 4.28788 98.642 4.18182C98.286 4.07576 97.9148 4.02273 97.5284 4.02273C96.8239 4.02273 96.1856 4.20076 95.6136 4.55682C95.0455 4.91288 94.5928 5.4375 94.2557 6.13068C93.9223 6.82386 93.7557 7.67424 93.7557 8.68182C93.7557 9.68939 93.9223 10.5398 94.2557 11.233C94.5928 11.9261 95.0455 12.4508 95.6136 12.8068C96.1856 13.1629 96.8239 13.3409 97.5284 13.3409C97.9148 13.3409 98.286 13.2879 98.642 13.1818C98.9981 13.0758 99.322 12.9186 99.6136 12.7102C99.9091 12.4981 100.159 12.2386 100.364 11.9318C100.572 11.6212 100.718 11.2652 100.801 10.8636H102.21C102.104 11.4583 101.911 11.9905 101.631 12.4602C101.35 12.9299 101.002 13.3295 100.585 13.6591C100.169 13.9848 99.7008 14.233 99.1818 14.4034C98.6667 14.5739 98.1155 14.6591 97.5284 14.6591C96.536 14.6591 95.6534 14.4167 94.8807 13.9318C94.108 13.447 93.5 12.7576 93.0568 11.8636C92.6136 10.9697 92.392 9.90909 92.392 8.68182C92.392 7.45455 92.6136 6.39394 93.0568 5.5C93.5 4.60606 94.108 3.91667 94.8807 3.43182C95.6534 2.94697 96.536 2.70455 97.5284 2.70455C98.1155 2.70455 98.6667 2.78977 99.1818 2.96023C99.7008 3.13068 100.169 3.38068 100.585 3.71023C101.002 4.03598 101.35 4.43371 101.631 4.90341C101.911 5.36932 102.104 5.90151 102.21 6.5ZM112.578 14.6591C111.722 14.6591 110.993 14.4261 110.391 13.9602C109.788 13.4905 109.328 12.8106 109.01 11.9205C108.692 11.0265 108.533 9.94697 108.533 8.68182C108.533 7.42424 108.692 6.35038 109.01 5.46023C109.332 4.56629 109.794 3.88447 110.396 3.41477C111.002 2.94129 111.73 2.70455 112.578 2.70455C113.427 2.70455 114.152 2.94129 114.754 3.41477C115.36 3.88447 115.822 4.56629 116.141 5.46023C116.463 6.35038 116.624 7.42424 116.624 8.68182C116.624 9.94697 116.464 11.0265 116.146 11.9205C115.828 12.8106 115.368 13.4905 114.766 13.9602C114.163 14.4261 113.434 14.6591 112.578 14.6591ZM112.578 13.4091C113.427 13.4091 114.086 13 114.555 12.1818C115.025 11.3636 115.26 10.197 115.26 8.68182C115.26 7.67424 115.152 6.81629 114.936 6.10795C114.724 5.39962 114.417 4.85985 114.016 4.48864C113.618 4.11742 113.139 3.93182 112.578 3.93182C111.737 3.93182 111.08 4.34659 110.607 5.17614C110.133 6.00189 109.896 7.17045 109.896 8.68182C109.896 9.68939 110.002 10.5455 110.214 11.25C110.427 11.9545 110.732 12.4905 111.129 12.858C111.531 13.2254 112.014 13.4091 112.578 13.4091ZM122.578 14.6591C121.722 14.6591 120.993 14.4261 120.391 13.9602C119.788 13.4905 119.328 12.8106 119.01 11.9205C118.692 11.0265 118.533 9.94697 118.533 8.68182C118.533 7.42424 118.692 6.35038 119.01 5.46023C119.332 4.56629 119.794 3.88447 120.396 3.41477C121.002 2.94129 121.73 2.70455 122.578 2.70455C123.427 2.70455 124.152 2.94129 124.754 3.41477C125.36 3.88447 125.822 4.56629 126.141 5.46023C126.463 6.35038 126.624 7.42424 126.624 8.68182C126.624 9.94697 126.464 11.0265 126.146 11.9205C125.828 12.8106 125.368 13.4905 124.766 13.9602C124.163 14.4261 123.434 14.6591 122.578 14.6591ZM122.578 13.4091C123.427 13.4091 124.086 13 124.555 12.1818C125.025 11.3636 125.26 10.197 125.26 8.68182C125.26 7.67424 125.152 6.81629 124.936 6.10795C124.724 5.39962 124.417 4.85985 124.016 4.48864C123.618 4.11742 123.139 3.93182 122.578 3.93182C121.737 3.93182 121.08 4.34659 120.607 5.17614C120.133 6.00189 119.896 7.17045 119.896 8.68182C119.896 9.68939 120.002 10.5455 120.214 11.25C120.427 11.9545 120.732 12.4905 121.129 12.858C121.531 13.2254 122.014 13.4091 122.578 13.4091ZM132.874 2.86364V14.5H131.464V4.34091H131.396L128.555 6.22727V4.79545L131.464 2.86364H132.874Z" fill="black"/>
</g>
</svg>
